HIERARCHY
ROOT Hips
{
	OFFSET -3.266409 79.531403 0.110988
	CHANNELS 6 Xposition Yposition Zposition Zrotation Yrotation Xrotation 
	JOINT Spine
	{
		OFFSET 0.000000 8.814246 -2.080107
		CHANNELS 3 Zrotation Yrotation Xrotation
		JOINT Spine1
		{
			OFFSET 0.000000 8.844141 -0.000000
			CHANNELS 3 Zrotation Yrotation Xrotation
			JOINT Spine2
			{
				OFFSET 0.000000 11.682268 -0.000000
				CHANNELS 3 Zrotation Yrotation Xrotation
				JOINT Spine3
				{
					OFFSET 0.000000 11.746700 -0.000000
					CHANNELS 3 Zrotation Yrotation Xrotation
					JOINT Neck
					{
						OFFSET 0.000000 17.658264 -0.000000
						CHANNELS 3 Zrotation Yrotation Xrotation
						JOINT Neck1
						{
							OFFSET 0.000000 5.101515 0.000000
							CHANNELS 3 Zrotation Yrotation Xrotation
							JOINT Head
							{
								OFFSET 0.000000 5.101515 0.000000
								CHANNELS 3 Zrotation Yrotation Xrotation
								JOINT HeadEnd
								{
									OFFSET 0.000000 11.655085 -0.000000
									CHANNELS 3 Zrotation Yrotation Xrotation
									End Site
									{
										OFFSET 0.000000 0.000000 0.000000
									}
								}
							}
						}
					}
					JOINT RightShoulder
					{
						OFFSET -2.625389 11.175210 -0.000000
						CHANNELS 3 Zrotation Yrotation Xrotation
						JOINT RightArm
						{
							OFFSET -0.000000 10.434715 0.000000
							CHANNELS 3 Zrotation Yrotation Xrotation
							JOINT RightForeArm
							{
								OFFSET 0.000000 29.628420 0.000000
								CHANNELS 3 Zrotation Yrotation Xrotation
								JOINT RightHand
								{
									OFFSET -0.000000 22.857611 -0.000000
									CHANNELS 3 Zrotation Yrotation Xrotation
									JOINT RightHandThumb1
									{
										OFFSET -2.867323 3.959563 2.944291
										CHANNELS 3 Zrotation Yrotation Xrotation
										JOINT RightHandThumb2
										{
											OFFSET -0.000000 3.350399 -0.000000
											CHANNELS 3 Zrotation Yrotation Xrotation
											JOINT RightHandThumb3
											{
												OFFSET -0.000000 3.756509 0.000000
												CHANNELS 3 Zrotation Yrotation Xrotation
												JOINT RightHandThumb4
												{
													OFFSET -0.000000 3.147345 -0.000000
													CHANNELS 3 Zrotation Yrotation Xrotation
													End Site
													{
														OFFSET 0.000000 0.000000 0.000000
													}
												}
											}
										}
									}
									JOINT RightHandIndex1
									{
										OFFSET -0.086752 10.030893 2.345280
										CHANNELS 3 Zrotation Yrotation Xrotation
										JOINT RightHandIndex2
										{
											OFFSET -0.000000 4.061090 0.000000
											CHANNELS 3 Zrotation Yrotation Xrotation
											JOINT RightHandIndex3
											{
												OFFSET 0.000000 3.248873 0.000000
												CHANNELS 3 Zrotation Yrotation Xrotation
												JOINT RightHandIndex4
												{
													OFFSET 0.000000 2.639709 0.000000
													CHANNELS 3 Zrotation Yrotation Xrotation
													End Site
													{
														OFFSET 0.000000 0.000000 0.000000
													}
												}
											}
										}
									}
									JOINT RightHandMiddle1
									{
										OFFSET 0.104102 9.502952 0.006768
										CHANNELS 3 Zrotation Yrotation Xrotation
										JOINT RightHandMiddle2
										{
											OFFSET -0.000000 4.568727 -0.000000
											CHANNELS 3 Zrotation Yrotation Xrotation
											JOINT RightHandMiddle3
											{
												OFFSET -0.000000 3.654981 -0.000000
												CHANNELS 3 Zrotation Yrotation Xrotation
												JOINT RightHandMiddle4
												{
													OFFSET 0.000000 2.741236 0.000000
													CHANNELS 3 Zrotation Yrotation Xrotation
													End Site
													{
														OFFSET 0.000000 0.000000 0.000000
													}
												}
											}
										}
									}
									JOINT RightHandRing1
									{
										OFFSET 0.086752 8.921708 -2.267442
										CHANNELS 3 Zrotation Yrotation Xrotation
										JOINT RightHandRing2
										{
											OFFSET 0.000000 4.061090 0.000000
											CHANNELS 3 Zrotation Yrotation Xrotation
											JOINT RightHandRing3
											{
												OFFSET -0.000000 3.654981 -0.000000
												CHANNELS 3 Zrotation Yrotation Xrotation
												JOINT RightHandRing4
												{
													OFFSET -0.000000 2.741236 -0.000000
													CHANNELS 3 Zrotation Yrotation Xrotation
													End Site
													{
														OFFSET 0.000000 0.000000 0.000000
													}
												}
											}
										}
									}
									JOINT RightHandPinky1
									{
										OFFSET -0.173504 7.976997 -4.467199
										CHANNELS 3 Zrotation Yrotation Xrotation
										JOINT RightHandPinky2
										{
											OFFSET 0.000000 3.350399 0.000000
											CHANNELS 3 Zrotation Yrotation Xrotation
											JOINT RightHandPinky3
											{
												OFFSET -0.000000 2.842763 -0.000000
												CHANNELS 3 Zrotation Yrotation Xrotation
												JOINT RightHandPinky4
												{
													OFFSET -0.000000 2.639709 -0.000000
													CHANNELS 3 Zrotation Yrotation Xrotation
													End Site
													{
														OFFSET 0.000000 0.000000 0.000000
													}
												}
											}
										}
									}
									JOINT RightForeArmEnd
									{
										OFFSET 0.000000 0.000000 0.000000
										CHANNELS 3 Zrotation Yrotation Xrotation
										End Site
										{
											OFFSET 0.000000 0.000000 0.000000
										}
									}
								}
								JOINT RightArmEnd
								{
									OFFSET 0.000000 0.000000 0.000000
									CHANNELS 3 Zrotation Yrotation Xrotation
									End Site
									{
										OFFSET 0.000000 0.000000 0.000000
									}
								}
							}
						}
					}
					JOINT LeftShoulder
					{
						OFFSET 2.625389 11.175210 -0.000000
						CHANNELS 3 Zrotation Yrotation Xrotation
						JOINT LeftArm
						{
							OFFSET 0.000000 10.813635 0.000000
							CHANNELS 3 Zrotation Yrotation Xrotation
							JOINT LeftForeArm
							{
								OFFSET 0.000000 28.724781 -0.000000
								CHANNELS 3 Zrotation Yrotation Xrotation
								JOINT LeftHand
								{
									OFFSET 0.644384 25.716167 -0.328871
									CHANNELS 3 Zrotation Yrotation Xrotation
									JOINT LeftHandThumb1
									{
										OFFSET 2.867323 3.959563 2.944291
										CHANNELS 3 Zrotation Yrotation Xrotation
										JOINT LeftHandThumb2
										{
											OFFSET 0.000000 3.350399 -0.000000
											CHANNELS 3 Zrotation Yrotation Xrotation
											JOINT LeftHandThumb3
											{
												OFFSET 0.000000 3.756509 -0.000000
												CHANNELS 3 Zrotation Yrotation Xrotation
												JOINT LeftHandThumb4
												{
													OFFSET -0.000000 3.100000 0.000000
													CHANNELS 3 Zrotation Yrotation Xrotation
													End Site
													{
														OFFSET 0.000000 0.000000 0.000000
													}
												}
											}
										}
									}
									JOINT LeftHandIndex1
									{
										OFFSET 0.086752 10.030893 2.345280
										CHANNELS 3 Zrotation Yrotation Xrotation
										JOINT LeftHandIndex2
										{
											OFFSET -0.000000 4.061090 0.000000
											CHANNELS 3 Zrotation Yrotation Xrotation
											JOINT LeftHandIndex3
											{
												OFFSET -0.000000 3.248873 0.000000
												CHANNELS 3 Zrotation Yrotation Xrotation
												JOINT LeftHandIndex4
												{
													OFFSET -0.000000 2.639709 0.000000
													CHANNELS 3 Zrotation Yrotation Xrotation
													End Site
													{
														OFFSET 0.000000 0.000000 0.000000
													}
												}
											}
										}
									}
									JOINT LeftHandMiddle1
									{
										OFFSET -0.104102 9.502952 0.006768
										CHANNELS 3 Zrotation Yrotation Xrotation
										JOINT LeftHandMiddle2
										{
											OFFSET 0.000000 4.568727 -0.000000
											CHANNELS 3 Zrotation Yrotation Xrotation
											JOINT LeftHandMiddle3
											{
												OFFSET 0.000000 3.654981 -0.000000
												CHANNELS 3 Zrotation Yrotation Xrotation
												JOINT LeftHandMiddle4
												{
													OFFSET -0.000000 2.741236 -0.000000
													CHANNELS 3 Zrotation Yrotation Xrotation
													End Site
													{
														OFFSET 0.000000 0.000000 0.000000
													}
												}
											}
										}
									}
									JOINT LeftHandRing1
									{
										OFFSET -0.086752 8.921708 -2.267442
										CHANNELS 3 Zrotation Yrotation Xrotation
										JOINT LeftHandRing2
										{
											OFFSET 0.000000 4.061090 -0.000000
											CHANNELS 3 Zrotation Yrotation Xrotation
											JOINT LeftHandRing3
											{
												OFFSET 0.000000 3.654981 0.000000
												CHANNELS 3 Zrotation Yrotation Xrotation
												JOINT LeftHandRing4
												{
													OFFSET 0.000000 2.741236 -0.000000
													CHANNELS 3 Zrotation Yrotation Xrotation
													End Site
													{
														OFFSET 0.000000 0.000000 0.000000
													}
												}
											}
										}
									}
									JOINT LeftHandPinky1
									{
										OFFSET 0.173504 7.976997 -4.467199
										CHANNELS 3 Zrotation Yrotation Xrotation
										JOINT LeftHandPinky2
										{
											OFFSET -0.000000 3.350399 -0.000000
											CHANNELS 3 Zrotation Yrotation Xrotation
											JOINT LeftHandPinky3
											{
												OFFSET -0.000000 2.842763 0.000000
												CHANNELS 3 Zrotation Yrotation Xrotation
												JOINT LeftHandPinky4
												{
													OFFSET -0.000000 2.639709 -0.000000
													CHANNELS 3 Zrotation Yrotation Xrotation
													End Site
													{
														OFFSET 0.000000 0.000000 0.000000
													}
												}
											}
										}
									}
									JOINT LeftForeArmEnd
									{
										OFFSET 0.000000 0.000000 0.000000
										CHANNELS 3 Zrotation Yrotation Xrotation
										End Site
										{
											OFFSET 0.000000 0.000000 0.000000
										}
									}
								}
								JOINT LeftArmEnd
								{
									OFFSET 0.000000 0.000000 0.000000
									CHANNELS 3 Zrotation Yrotation Xrotation
									End Site
									{
										OFFSET 0.000000 0.000000 0.000000
									}
								}
							}
						}
					}
				}
			}
		}
	}
	JOINT RightUpLeg
	{
		OFFSET -11.289943 -0.000000 0.000000
		CHANNELS 3 Zrotation Yrotation Xrotation
		JOINT RightLeg
		{
			OFFSET 0.000000 -38.200325 0.000000
			CHANNELS 3 Zrotation Yrotation Xrotation
			JOINT RightFoot
			{
				OFFSET -0.000000 -39.900856 -0.000000
				CHANNELS 3 Zrotation Yrotation Xrotation
				JOINT RightToeBase
				{
					OFFSET -0.000000 -0.000000 15.261641
					CHANNELS 3 Zrotation Yrotation Xrotation
					JOINT RightToeBaseEnd
					{
						OFFSET -0.000000 0.000000 7.370709
						CHANNELS 3 Zrotation Yrotation Xrotation
						End Site
						{
							OFFSET 0.000000 0.000000 0.000000
						}
					}
				}
				JOINT RightLegEnd
				{
					OFFSET 0.000000 0.000000 0.000000
					CHANNELS 3 Zrotation Yrotation Xrotation
					End Site
					{
						OFFSET 0.000000 0.000000 0.000000
					}
				}
			}
			JOINT RightUpLegEnd
			{
				OFFSET 0.000000 0.000000 0.000000
				CHANNELS 3 Zrotation Yrotation Xrotation
				End Site
				{
					OFFSET 0.000000 0.000000 0.000000
				}
			}
		}
	}
	JOINT LeftUpLeg
	{
		OFFSET 11.315661 -0.000000 0.000000
		CHANNELS 3 Zrotation Yrotation Xrotation
		JOINT LeftLeg
		{
			OFFSET -0.000000 -38.200325 0.000000
			CHANNELS 3 Zrotation Yrotation Xrotation
			JOINT LeftFoot
			{
				OFFSET 0.000000 -39.900856 -0.000000
				CHANNELS 3 Zrotation Yrotation Xrotation
				JOINT LeftToeBase
				{
					OFFSET -0.000000 -0.000000 15.261641
					CHANNELS 3 Zrotation Yrotation Xrotation
					JOINT LeftToeBaseEnd
					{
						OFFSET -0.000000 0.000000 7.539996
						CHANNELS 3 Zrotation Yrotation Xrotation
						End Site
						{
							OFFSET 0.000000 0.000000 0.000000
						}
					}
				}
				JOINT LeftLegEnd
				{
					OFFSET 0.000000 0.000000 0.000000
					CHANNELS 3 Zrotation Yrotation Xrotation
					End Site
					{
						OFFSET 0.000000 0.000000 0.000000
					}
				}
			}
			JOINT LeftUpLegEnd
			{
				OFFSET 0.000000 0.000000 0.000000
				CHANNELS 3 Zrotation Yrotation Xrotation
				End Site
				{
					OFFSET 0.000000 0.000000 0.000000
				}
			}
		}
	}
}
MOTION
Frames: 4
Frame Time: 0.016667
-24.317907 78.758476 17.125488 -0.202355 16.606943 -5.357185 2.746562 -0.535502 12.611761 3.003620 -0.913715 19.374388 -0.985121 0.479074 10.987079 -1.524615 0.180678 1.521724 -7.811714 6.632405 -0.460799 -5.660133 0.671870 -12.680177 -0.377852 3.949620 -19.703888 0.000000 0.000000 0.000000 89.038208 0.078346 7.577080 71.137810 -12.763216 -1.030310 1.763330 21.797499 84.137436 -41.515667 -14.244548 11.606839 7.821114 -1.462893 41.247654 -0.000028 0.000023 -19.120029 0.000027 0.000042 -13.324820 0.000016 0.000025 -0.000030 1.392629 -0.057758 -2.870207 3.383889 0.016774 0.011744 3.393611 0.017770 -0.017657 -0.000031 0.000017 -0.000005 2.143672 -0.032578 -8.218252 3.464169 0.007134 0.037434 3.315370 -0.000394 0.029968 0.000013 0.000136 -0.000001 2.530243 0.058672 -16.983707 2.951460 -0.010236 -0.060733 2.887101 -0.000687 -0.027521 0.000002 0.000600 0.000013 3.767731 0.362969 -25.927893 2.263446 0.047921 -0.223400 2.503316 -0.007139 -0.143125 0.000712 -0.000014 0.000009 0.000000 0.000000 0.000000 0.000000 0.000000 0.000000 -87.806335 -0.571438 6.191094 -68.554619 27.689455 -3.977816 -1.511590 -16.837910 94.112915 37.464973 21.151468 21.648636 -4.697868 1.123979 42.564720 0.000004 0.000003 -11.719337 -0.000103 -0.000009 -8.262897 -0.001796 0.000006 -0.000083 8.151554 -0.106643 -4.559551 -0.138988 -0.008059 0.084057 -0.290686 -0.000386 0.016766 -0.000023 0.001141 0.000030 6.383335 -0.037916 -9.498896 -0.542442 -0.005647 0.004890 -0.468706 0.007061 0.006554 0.001200 -0.000051 -0.000114 4.362487 0.065261 -15.955278 -0.782456 -0.005237 -0.025959 -0.787620 -0.008466 -0.019101 0.002213 0.000037 0.000002 3.847228 0.345685 -21.777828 -0.903005 -0.016390 -0.156584 -1.035649 -0.025390 -0.096459 -0.000611 -0.000004 -0.000019 0.000000 0.000000 0.000000 0.000000 0.000000 0.000000 2.494929 -8.104656 -18.104477 -0.204601 -0.153484 55.158356 -2.125762 -19.232981 -2.217635 1.315112 -0.472190 -28.340422 0.000000 0.000000 0.000000 0.000000 0.000000 0.000000 0.000000 0.000000 0.000000 14.686131 -2.178275 -23.470165 0.668296 0.457145 59.551800 -8.710902 7.222562 10.144477 -0.891326 0.329464 -33.002079 0.000000 0.000000 0.000000 0.000000 0.000000 0.000000 0.000000 0.000000 0.000000 
-24.669741 78.766380 17.220722 -0.086179 16.854410 -5.290683 2.776392 -0.557659 12.614985 3.036600 -0.931364 19.477943 -1.062925 0.448381 10.942125 -1.526639 0.161490 1.583711 -7.881586 6.735014 -0.410165 -5.646163 0.770338 -12.627865 -0.399369 3.953850 -19.715521 0.000000 0.000000 0.000000 89.024956 0.074984 7.597798 71.173355 -12.776951 -1.068041 1.755745 21.836424 84.184616 -41.260521 -14.285040 11.443327 7.859726 -1.466644 41.231140 -0.000024 0.000023 -19.206646 0.000025 0.000041 -13.379250 0.000015 0.000024 -0.000030 1.691100 -0.057942 -2.884437 3.533059 0.016704 0.004445 3.547399 0.017916 -0.025977 -0.000028 0.000018 -0.000008 2.454395 -0.032983 -8.218149 3.611277 0.007793 0.033770 3.463456 0.000144 0.026375 0.000013 0.000135 -0.000001 2.789804 0.058237 -16.992912 3.090853 -0.010341 -0.056384 3.026296 -0.001359 -0.023362 0.000002 0.000484 0.000013 3.978460 0.366467 -25.915817 2.380330 0.048960 -0.216948 2.624955 -0.006566 -0.135647 0.000679 -0.000014 0.000006 0.000000 0.000000 0.000000 0.000000 0.000000 0.000000 -87.863327 -0.557115 6.248466 -68.530556 27.743916 -4.017975 -1.452983 -16.804729 94.629517 37.270435 21.430685 21.699907 -4.763494 1.135968 42.531570 0.000003 0.000004 -11.889637 -0.000105 -0.000008 -8.376685 -0.001824 0.000007 -0.000236 7.608765 -0.107475 -4.672543 -0.304344 -0.007515 0.090143 -0.450380 -0.000021 0.024168 -0.000023 0.001079 0.000030 5.839252 -0.037573 -9.592761 -0.718707 -0.004734 0.008389 -0.634357 0.007707 0.010139 0.001074 -0.000050 -0.000116 3.825618 0.065133 -15.974422 -0.978793 -0.006040 -0.032657 -0.978631 -0.009166 -0.024257 0.002206 0.000037 0.000002 3.395282 0.345049 -21.745174 -1.074876 -0.016576 -0.170273 -1.206992 -0.025795 -0.111489 -0.000609 -0.000004 -0.000019 0.000000 0.000000 0.000000 0.000000 0.000000 0.000000 2.553229 -8.168297 -18.189905 -0.199923 -0.144157 55.174721 -2.289748 -19.250088 -2.280432 1.327306 -0.485256 -28.306387 0.000000 0.000000 0.000000 0.000000 0.000000 0.000000 0.000000 0.000000 0.000000 14.675282 -2.181139 -23.626455 0.666439 0.450526 59.545731 -8.682557 7.248685 10.449314 -0.900154 0.330407 -33.082924 0.000000 0.000000 0.000000 0.000000 0.000000 0.000000 0.000000 0.000000 0.000000 
-25.006981 78.772476 17.306326 0.037061 17.129162 -5.216719 2.804812 -0.578517 12.618481 3.066786 -0.947807 19.573164 -1.136007 0.429589 10.903982 -1.537323 0.147499 1.646846 -7.951349 6.823792 -0.365438 -5.630547 0.856214 -12.579186 -0.414458 3.958910 -19.728022 0.000000 0.000000 0.000000 89.007263 0.069858 7.611969 71.228210 -12.810888 -1.113924 1.747283 21.873644 84.189766 -41.095100 -14.385090 11.315426 7.896631 -1.470289 41.215359 -0.000019 0.000024 -19.289764 0.000023 0.000041 -13.431291 0.000015 0.000024 -0.000031 1.989274 -0.057487 -2.872689 3.687360 0.016975 -0.005102 3.706634 0.018367 -0.036108 -0.000025 0.000018 -0.000010 2.754357 -0.033153 -8.193531 3.760675 0.008528 0.029352 3.614583 0.000788 0.022176 0.000013 0.000134 -0.000000 3.028594 0.057474 -16.976139 3.226522 -0.010407 -0.051243 3.160626 -0.002071 -0.018682 0.000002 0.000388 0.000012 4.153524 0.368614 -25.877892 2.489452 0.050367 -0.209631 2.739697 -0.005861 -0.127948 0.000645 -0.000014 0.000003 0.000000 0.000000 0.000000 0.000000 0.000000 0.000000 -87.923569 -0.535524 6.292325 -68.489113 27.830906 -4.092926 -1.392102 -16.766878 95.182686 37.080933 21.742632 21.799213 -4.838130 1.148220 42.495514 0.000003 0.000004 -12.081223 -0.000107 -0.000008 -8.505254 -0.001862 0.000008 -0.000374 7.037055 -0.107643 -4.783517 -0.489554 -0.006211 0.100334 -0.629904 0.001124 0.035266 -0.000023 0.001010 0.000030 5.270707 -0.037078 -9.683335 -0.913331 -0.003566 0.013276 -0.818242 0.008612 0.014937 0.000970 -0.000049 -0.000118 3.275219 0.064711 -15.987535 -1.191554 -0.007066 -0.041067 -1.185012 -0.010140 -0.030548 0.002184 0.000037 0.000002 2.930781 0.343606 -21.700697 -1.259710 -0.017060 -0.187801 -1.391706 -0.026706 -0.129070 -0.000594 -0.000004 -0.000019 0.000000 0.000000 0.000000 0.000000 0.000000 0.000000 2.591875 -8.234529 -18.277107 -0.195610 -0.135472 55.204437 -2.435212 -19.281885 -2.342863 1.337268 -0.496963 -28.280689 0.000000 0.000000 0.000000 0.000000 0.000000 0.000000 0.000000 0.000000 0.000000 14.646995 -2.177645 -23.796644 0.664385 0.443248 59.556194 -8.652773 7.274973 10.741484 -0.911441 0.330999 -33.158497 0.000000 0.000000 0.000000 0.000000 0.000000 0.000000 0.000000 0.000000 0.000000 
-25.329943 78.777115 17.382874 0.168022 17.431650 -5.137187 2.833467 -0.597692 12.623698 3.093570 -0.961607 19.662041 -1.206203 0.425613 10.873742 -1.558300 0.140004 1.708969 -8.021626 6.896523 -0.323707 -5.611492 0.928131 -12.533121 -0.422612 3.963760 -19.741512 0.000000 0.000000 0.000000 88.985527 0.062591 7.621313 71.297203 -12.860038 -1.165304 1.738681 21.908316 84.143661 -41.014694 -14.531258 11.220373 7.932998 -1.474019 41.199741 -0.000015 0.000024 -19.372122 0.000021 0.000040 -13.482949 0.000015 0.000023 -0.000031 2.291802 -0.056361 -2.844526 3.847327 0.017682 -0.017100 3.871326 0.019228 -0.048350 -0.000023 0.000019 -0.000013 3.047720 -0.033094 -8.151975 3.912801 0.009372 0.024084 3.769185 0.001567 0.017286 0.000014 0.000134 0.000000 3.251817 0.056388 -16.936878 3.360299 -0.010496 -0.045212 3.292127 -0.002866 -0.013336 0.000001 0.000313 0.000012 4.297754 0.369388 -25.814798 2.593856 0.051956 -0.200843 2.850553 -0.005199 -0.119501 0.000607 -0.000013 0.000000 0.000000 0.000000 0.000000 0.000000 0.000000 0.000000 -87.989037 -0.507533 6.320813 -68.421936 27.937479 -4.186111 -1.328158 -16.727201 95.751282 36.901493 22.063025 21.941948 -4.920812 1.160635 42.457008 0.000003 0.000005 -12.291598 -0.000109 -0.000007 -8.646861 -0.001912 0.000009 -0.000500 6.442495 -0.107171 -4.891037 -0.692035 -0.004135 0.114601 -0.826791 0.003086 0.049963 -0.000023 0.000934 0.000030 4.683797 -0.036421 -9.768340 -1.122895 -0.002144 0.019541 -1.017024 0.009785 0.020914 0.000884 -0.000049 -0.000118 2.718541 0.063998 -15.991673 -1.416526 -0.008288 -0.051063 -1.402509 -0.011377 -0.037921 0.002154 0.000037 0.000001 2.458830 0.341456 -21.640553 -1.453651 -0.017897 -0.208928 -1.585757 -0.028150 -0.148889 -0.000567 -0.000004 -0.000019 0.000000 0.000000 0.000000 0.000000 0.000000 0.000000 2.609469 -8.309315 -18.367168 -0.191584 -0.127411 55.252380 -2.565231 -19.329802 -2.403179 1.345722 -0.507520 -28.263283 0.000000 0.000000 0.000000 0.000000 0.000000 0.000000 0.000000 0.000000 0.000000 14.600919 -2.175302 -23.981844 0.662072 0.435009 59.581192 -8.620584 7.300373 11.023687 -0.925058 0.331689 -33.228870 0.000000 0.000000 0.000000 0.000000 0.000000 0.000000 0.000000 0.000000 0.000000 
